<svg width="17" height="17" viewBox="0 0 17 17" fill="none" xmlns="http://www.w3.org/2000/svg">
<path opacity="0.3" fill-rule="evenodd" clip-rule="evenodd" d="M8.50033 15.5827C12.4123 15.5827 15.5837 12.4114 15.5837 8.49935C15.5837 4.58733 12.4123 1.41602 8.50033 1.41602C4.58831 1.41602 1.41699 4.58733 1.41699 8.49935C1.41699 12.4114 4.58831 15.5827 8.50033 15.5827Z" fill="white"/>
<path fill-rule="evenodd" clip-rule="evenodd" d="M9.20842 4.95833C9.20842 4.56713 8.89129 4.25 8.50009 4.25C8.10889 4.25 7.79176 4.56713 7.79176 4.95833V7.79158H4.95833C4.56713 7.79158 4.25 8.10871 4.25 8.49991C4.25 8.89111 4.56713 9.20825 4.95833 9.20825H7.79176V12.0417C7.79176 12.4329 8.10889 12.75 8.50009 12.75C8.89129 12.75 9.20842 12.4329 9.20842 12.0417V9.20825H12.0417C12.4329 9.20825 12.75 8.89111 12.75 8.49991C12.75 8.10871 12.4329 7.79158 12.0417 7.79158H9.20842V4.95833Z" fill="white"/>
</svg>
